<svg width="175" height="18" viewBox="0 0 175 18" xmlns="http://www.w3.org/2000/svg"><path d="M170.57 13.08l2.86-6.35c.56-1.25.75-1.53 1.34-1.68v-.43h-3v.43c1 .21 1.1.71.64 1.78l-1.15 2.75-1.43-3.24c-.31-.71-.26-1.12.79-1.25v-.46h-4v.47c.48.12.66.32 1.07 1.17l2.55 5.47-.42.92a3.69 3.69 0 0 1-.73 1.16c-.18-.63-.54-1-1.08-1A1 1 0 0 0 167 14a1.25 1.25 0 0 0 1.26 1.25c1 0 1.59-.49 2.33-2.12l-.02-.05zm-4.05-1.86l-.23-.49a2.79 2.79 0 0 1-1.09.28c-.72 0-.9-.37-.9-.87V5.51h1.93v-.87h-1.93V3.23h-.3L161.26 5v.49h1.11v5c0 1 .56 1.52 1.67 1.52a4.06 4.06 0 0 0 2.45-.84l.03.05zm-5.81.17c-.94-.13-1.08-.33-1.08-1.17V4.39h-.75l-2.23 1.47v.33h1.08v4c0 .84-.15 1-1.08 1.18v.47h4.06v-.45zm-2.17-8.14a1.16 1.16 0 0 0 1.15-1.17 1 1 0 0 0-1-1 1.15 1.15 0 0 0-1.17 1.16 1 1 0 0 0 1.06 1.06l-.04-.05zm-2.62 6.43c0-1.41-1.17-1.85-2.27-2.2-1.1-.35-1.82-.57-1.83-1.36a.85.85 0 0 1 1-.83A3.19 3.19 0 0 1 155 6.64l.4-.19-.58-1.88h-.25l-.27.23a3.72 3.72 0 0 0-1.43-.29 2.36 2.36 0 0 0-2.66 2.33c0 1.42 1.17 1.83 2.27 2.19 1.1.36 1.83.58 1.83 1.38 0 .51-.38.89-1.11.89-1 0-1.8-.67-2.73-1.85l-.41.15.6 2.37h.26l.44-.32a3.85 3.85 0 0 0 1.69.38 2.54 2.54 0 0 0 2.82-2.4l.05.05zM148 11.41c-1-.15-1.13-.36-1.13-1.3V7c.23-.452.53-.863.89-1.22a.92.92 0 0 0 .93 1 1.09 1.09 0 0 0 1-1.21 1 1 0 0 0-1.05-1.08c-.75 0-1.33.63-1.87 1.51V4.42h-.67l-2.21 1.45v.33h1.05v4.05c0 .83-.14 1.05-1 1.17v.47h4l.06-.48zm-9.53-4.12c0-1.23.51-2 1.52-2 .7 0 1.14.5 1.32 1.48l-2.83 1v-.5l-.01.02zm4.78 3.21l-.42-.31a2.31 2.31 0 0 1-1.74.79c-1.4 0-2.2-1.06-2.49-2.45L143.12 7a2.57 2.57 0 0 0-2.79-2.49 3.69 3.69 0 0 0-3.66 3.83 3.49 3.49 0 0 0 3.71 3.69 3 3 0 0 0 2.83-1.53h.04zm-8.04-3.73c.56-1.24.74-1.52 1.33-1.67v-.41h-3v.42c1 .21 1.1.72.65 1.78l-1.16 2.76-1.43-3.24c-.31-.71-.26-1.13.79-1.25V4.7h-4v.47c.47.12.67.32 1.06 1.17l2.64 5.66h.79l2.33-5.23zm-6.95 4.66c-.94-.14-1.08-.33-1.08-1.17V4.45h-.75l-2.23 1.47v.33h1.08v4c0 .84-.15 1-1.08 1.18v.47h4.06v-.47zm-2.16-8.12a1.16 1.16 0 0 0 1.16-1.17 1 1 0 0 0-1-1 1.15 1.15 0 0 0-1.17 1.16 1 1 0 0 0 1 1.06l.01-.05zm-7.67 8.21c-.87-.12-1-.34-1-1.17V6.78a3.13 3.13 0 0 1 1.93-1c.75 0 1 .38 1 1.06v3.47c0 .84-.13 1.05-1 1.17v.48h3.91v-.47c-.87-.12-1-.34-1-1.17V6.65a1.83 1.83 0 0 0-2.06-2.08 4.56 4.56 0 0 0-2.78 1.36V4.47h-.7l-2.2 1.45v.33h1v4.05c0 .84-.14 1-1 1.17v.47h3.91l-.01-.42zm-16.6-8.97v4.56c0 3 1.55 5 5.43 5s5.41-2.06 5.41-5V3.49c0-1.78.5-2.24 1.36-2.49V.53h-3.68V1c.87.24 1.37.7 1.38 2.48v3.68c0 2.57-1.34 3.76-3.9 3.76-2.56 0-3.91-1.18-3.92-3.75V2.54c0-1.15.34-1.35 1.29-1.49v-.5h-4.62v.5c1 .13 1.26.33 1.26 1.49l-.01.01zm-12.18 8.97c-.87-.12-1-.33-1-1.17V6.84a3.16 3.16 0 0 1 1.93-1c.75 0 1 .38 1 1.07v3.47c0 .83-.14 1.05-1 1.17V12h3.91v-.47c-.87-.12-1-.33-1-1.17V6.7a1.84 1.84 0 0 0-2.06-2.08A4.67 4.67 0 0 0 88.59 6V4.52h-.7L85.68 6v.34h1v4c0 .84-.14 1.05-1 1.18V12h3.91l.06-.48zm-6.06 0c-1-.15-1.13-.36-1.13-1.31V7.09c.23-.452.53-.863.89-1.22a.91.91 0 0 0 .93 1 1.07 1.07 0 0 0 1-1.2 1 1 0 0 0-1-1.08c-.75 0-1.33.63-1.87 1.51V4.53h-.67L79.5 6v.34h1v4c0 .84-.14 1.05-1 1.18V12h4l.09-.48zm-9.53-4.11c0-1.23.51-2 1.51-2 .7 0 1.15.5 1.33 1.49l-2.83 1v-.5l-.01.01zm4.78 3.22l-.42-.32a2.28 2.28 0 0 1-1.74.8c-1.4 0-2.2-1.06-2.49-2.45l4.56-1.53A2.57 2.57 0 0 0 76 4.65a3.69 3.69 0 0 0-3.66 3.83A3.49 3.49 0 0 0 76 12.17a3 3 0 0 0 2.83-1.53l.01-.01zm-7.01.71l-.23-.49a2.66 2.66 0 0 1-1.1.28c-.71 0-.9-.37-.9-.87V5.68h1.9v-.87h-1.94V3.4h-.27l-2.74 1.8v.49h1.11v5c0 1 .57 1.52 1.68 1.52a4.06 4.06 0 0 0 2.45-.84l.04-.03zM66 9.8c0-1.42-1.17-1.86-2.27-2.21-1.1-.35-1.79-.59-1.79-1.36a.85.85 0 0 1 .94-.83 3.19 3.19 0 0 1 2.29 1.4l.39-.18L65 4.73h-.24l-.29.27A3.72 3.72 0 0 0 63 4.67c-1.62 0-2.67.94-2.66 2.34.01 1.4 1.17 1.82 2.27 2.18 1.1.36 1.82.58 1.83 1.39 0 .5-.38.88-1.11.88-1 0-1.8-.67-2.73-1.85l-.41.15.6 2.37h.26l.44-.32a3.72 3.72 0 0 0 1.69.38A2.54 2.54 0 0 0 66 9.8zm-11.71.31c0-.78.34-1.15 2.12-1.64v2.21a1.91 1.91 0 0 1-1.19.49c-.59 0-.94-.32-.94-1.06h.01zm3.34 2a3.42 3.42 0 0 0 1.81-.63l-.14-.42c-.75.14-1 0-1-.47V6.55c0-1.21-.53-1.87-2.25-1.86-1.94 0-3.35 1-3.35 2a.83.83 0 0 0 .87.87 1 1 0 0 0 1-.83 1 1 0 0 0-.29-1 2.65 2.65 0 0 1 1.15-.27c.66 0 1 .22 1 .82v1.51c-2.72.67-4 1.27-4 2.72a1.62 1.62 0 0 0 1.84 1.7 3.75 3.75 0 0 0 2.23-.86 1 1 0 0 0 1.12.79l.01-.03zM46.88 7.46c0-1.24.51-2 1.52-2 .7 0 1.14.5 1.33 1.49L46.9 8a4.26 4.26 0 0 1 0-.5l-.02-.04zm4.79 3.27l-.41-.32a2.37 2.37 0 0 1-1.75.8c-1.4 0-2.19-1.07-2.49-2.45l4.57-1.53a2.58 2.58 0 0 0-2.81-2.53 3.68 3.68 0 0 0-3.66 3.83 3.48 3.48 0 0 0 3.7 3.69 3.06 3.06 0 0 0 2.83-1.53l.02.04zm-12.13.88c-.87-.12-1-.33-1-1.17V6.91a2.9 2.9 0 0 1 1.93-1c.74 0 1 .38 1 1.06v3.47c0 .84-.13 1.05-1 1.18v.47h3.91v-.49c-.87-.12-1-.33-1-1.17V6.79a1.83 1.83 0 0 0-2.06-2.08A4.47 4.47 0 0 0 38.52 6V0H38l-2.5 1.6v.34h1.11v8.5c0 .84-.14 1.05-1 1.18v.47h3.91l.02-.48zm-4.37-.21l-.23-.48a2.75 2.75 0 0 1-1.09.27c-.72 0-.9-.36-.9-.86V5.75h1.93v-.87h-1.94V3.46h-.28l-2.73 1.81v.48H31v5c0 1 .56 1.52 1.67 1.51a4.06 4.06 0 0 0 2.45-.84l.05-.02zm-7.5.25c-1-.15-1.13-.36-1.13-1.31V7.19A4.38 4.38 0 0 1 27.48 6a.91.91 0 0 0 .93 1 1.06 1.06 0 0 0 1-1.2 1 1 0 0 0-1.05-1.08c-.74 0-1.32.63-1.87 1.51v-1.6h-.67l-2.2 1.45v.34h1.05v4c0 .84-.14 1-1 1.18v.47h4v-.42zm-11-3.89c0-1.37.59-2.24 1.84-2.24 1.61 0 2.09 2 2.09 3.78 0 1.37-.59 2.24-1.84 2.24-1.61 0-2.08-2-2.09-3.78zm5.83.67a3.53 3.53 0 0 0-3.79-3.66 3.76 3.76 0 0 0-3.94 3.86 3.55 3.55 0 0 0 3.8 3.66 3.75 3.75 0 0 0 3.93-3.86zm-9.88-4.76c0-1.78.5-2.24 1.37-2.49V.71H10.3v.47c.87.24 1.38.7 1.38 2.48V9L3.91 1.2C3.49.78 3.32.73 3.05.73H.17v.47c.677.1 1.29.459 1.71 1 .274.215.436.542.44.89v6.1c0 1.78-.5 2.24-1.36 2.49v.47h3.69v-.47c-.87-.24-1.37-.7-1.38-2.48V3.44L12 12.21h.63l-.01-8.54zm.64   " fill="#FFF" fill-rule="nonzero"/></svg>